<svg width="16" height="16" viewBox="0 0 16 16" fill="none" xmlns="http://www.w3.org/2000/svg">
<path d="M4.66657 4.66671V2.00004C4.66657 1.63185 4.96504 1.33337 5.33323 1.33337H13.9999C14.3681 1.33337 14.6666 1.63185 14.6666 2.00004V10.6667C14.6666 11.0349 14.3681 11.3334 13.9999 11.3334H11.3334V13.995C11.3334 14.366 11.034 14.6667 10.6617 14.6667H2.00489C1.63395 14.6667 1.33337 14.3674 1.33337 13.995L1.33521 5.33836C1.33529 4.96742 1.63457 4.66671 2.00687 4.66671H4.66657ZM5.9999 4.66671H10.6618C11.0327 4.66671 11.3334 4.96599 11.3334 5.33836V10H13.3332V2.66671H5.9999V4.66671ZM2.66841 6.00004L2.66685 13.3334H10V6.00004H2.66841Z" fill="#0761FE"/>
</svg>
