<svg width="15" height="17" viewBox="0 0 15 17" fill="none" xmlns="http://www.w3.org/2000/svg">
<path d="M14.3238 5.03766C14.2893 4.96684 14.2411 4.90352 14.1821 4.85131C14.123 4.79911 14.0543 4.75905 13.9798 4.73342C13.9052 4.70779 13.8264 4.6971 13.7477 4.70194C13.6691 4.70678 13.5922 4.72708 13.5213 4.76166L7.3376 7.77741C7.2654 7.81108 7.20064 7.85879 7.14708 7.91776C7.09352 7.97672 7.05223 8.04576 7.02564 8.12085C6.99904 8.19594 6.98767 8.27558 6.99217 8.35511C6.99668 8.43464 7.01697 8.51248 7.05188 8.58409C7.08679 8.65569 7.1356 8.71963 7.19548 8.77217C7.25536 8.82471 7.3251 8.8648 7.40063 8.8901C7.47617 8.9154 7.55599 8.92541 7.63543 8.91954C7.71487 8.91367 7.79235 8.89204 7.86335 8.85591L14.0478 5.84016C14.1187 5.80559 14.182 5.75742 14.2342 5.69838C14.2864 5.63934 14.3265 5.5706 14.3521 5.49608C14.3777 5.42156 14.3884 5.34272 14.3836 5.26406C14.3787 5.1854 14.3584 5.10847 14.3238 5.03766Z" fill="#0761FE"/>
<path d="M8.22 0.200962L14.1893 3.64721C14.4173 3.77886 14.6066 3.96821 14.7383 4.19623C14.8699 4.42425 14.9392 4.68291 14.9393 4.94621V11.8387C14.9394 12.1021 14.8701 12.361 14.7385 12.5891C14.6068 12.8173 14.4174 13.0067 14.1893 13.1385L8.21925 16.5847C7.99122 16.7164 7.73255 16.7857 7.46925 16.7857C7.20594 16.7857 6.94728 16.7164 6.71925 16.5847L0.75 13.1385C0.521977 13.0068 0.332624 12.8175 0.200972 12.5894C0.0693195 12.3614 6.85776e-06 12.1028 1.68934e-07 11.8395V4.94696C-0.000124835 4.68354 0.0691252 4.42472 0.200784 4.19656C0.332443 3.96839 0.521867 3.77892 0.75 3.64721L6.72 0.200962C6.94803 0.0693093 7.2067 0 7.47 0C7.73331 0 7.99197 0.0693093 8.22 0.200962ZM7.62 1.24046C7.57439 1.21413 7.52266 1.20027 7.47 1.20027C7.41734 1.20027 7.36561 1.21413 7.32 1.24046L1.35 4.68671C1.30444 4.71302 1.2666 4.75084 1.24027 4.79639C1.21394 4.84193 1.20005 4.8936 1.2 4.94621V11.8387C1.19992 11.8914 1.21375 11.9433 1.24008 11.989C1.26642 12.0347 1.30433 12.0726 1.35 12.099L7.32 15.546C7.36561 15.5723 7.41734 15.5862 7.47 15.5862C7.52266 15.5862 7.57439 15.5723 7.62 15.546L13.5893 12.099C13.6348 12.0727 13.6727 12.0348 13.699 11.9893C13.7253 11.9437 13.7392 11.8921 13.7393 11.8395V4.94696C13.7393 4.89423 13.7255 4.8424 13.6992 4.79671C13.6728 4.75102 13.6349 4.71308 13.5893 4.68671L7.61925 1.24046H7.62Z" fill="#172B3D"/>
<path d="M1.09896 4.69347C1.13835 4.6252 1.1908 4.56537 1.25331 4.51738C1.31583 4.46938 1.38719 4.43418 1.46331 4.41377C1.53944 4.39337 1.61884 4.38816 1.69698 4.39844C1.77512 4.40873 1.85046 4.43431 1.91871 4.47372L7.48896 7.68972C7.55722 7.72912 7.61705 7.78157 7.66503 7.84409C7.71301 7.90661 7.74821 7.97796 7.76861 8.05408C7.78902 8.1302 7.79423 8.2096 7.78396 8.28773C7.77368 8.36587 7.74811 8.44122 7.70871 8.50947C7.66932 8.57772 7.61686 8.63755 7.55435 8.68553C7.49183 8.73352 7.42047 8.76872 7.34435 8.78912C7.26823 8.80953 7.18884 8.81474 7.1107 8.80446C7.03256 8.79418 6.95722 8.76862 6.88896 8.72922L1.31871 5.51247C1.25045 5.47308 1.19061 5.42064 1.14262 5.35812C1.09463 5.2956 1.05942 5.22424 1.03902 5.14812C1.01861 5.07199 1.0134 4.99259 1.02369 4.91446C1.03397 4.83632 1.05955 4.76097 1.09896 4.69272V4.69347Z" fill="#172B3D"/>
<path d="M7.35098 7.67395C7.75098 7.67395 7.95098 7.87395 7.95098 8.27395V15.699C7.95098 16.099 7.75098 16.299 7.35098 16.299C6.95098 16.299 6.75098 16.099 6.75098 15.699V8.27395C6.75098 7.87395 6.95098 7.67395 7.35098 7.67395Z" fill="#172B3D"/>
</svg>
