<svg width="16" height="16" viewBox="0 0 16 16" fill="none" xmlns="http://www.w3.org/2000/svg">
<path d="M8.00004 2.66671C6.27304 2.66671 4.73741 3.48706 3.76187 4.76187L5.33337 6.33337H1.33337V2.33337L2.81246 3.81246C4.03378 2.30137 5.90376 1.33337 8.00004 1.33337C11.6819 1.33337 14.6667 4.31814 14.6667 8.00004H13.3334C13.3334 5.05452 10.9456 2.66671 8.00004 2.66671ZM2.66671 8.00004C2.66671 10.9456 5.05452 13.3334 8.00004 13.3334C9.72704 13.3334 11.2627 12.513 12.2382 11.2382L10.6667 9.66671H14.6667V13.6667L13.1876 12.1876C11.9663 13.6987 10.0963 14.6667 8.00004 14.6667C4.31814 14.6667 1.33337 11.6819 1.33337 8.00004H2.66671Z" fill="#0761FE"/>
</svg>
