<svg width="16" height="16" viewBox="0 0 16 16" fill="none" xmlns="http://www.w3.org/2000/svg">
<path d="M8.5767 2.00007L14.9275 13.0001C15.1116 13.319 15.0024 13.7267 14.6835 13.9108C14.5822 13.9693 14.4672 14.0001 14.3502 14.0001H1.64848C1.28028 14.0001 0.981812 13.7016 0.981812 13.3334C0.981812 13.2164 1.01261 13.1014 1.07112 13.0001L7.42197 2.00007C7.60611 1.68121 8.01377 1.57196 8.33264 1.75605C8.43404 1.81457 8.51817 1.89873 8.5767 2.00007ZM2.80318 12.6668H13.1955L7.99931 3.66674L2.80318 12.6668ZM7.33264 10.6668H8.66597V12.0001H7.33264V10.6668ZM7.33264 6.00007H8.66597V9.33343H7.33264V6.00007Z" fill="#0761FE"/>
</svg>
