<svg width="24" height="24" viewBox="0 0 24 24" fill="none" xmlns="http://www.w3.org/2000/svg">
<path d="M19.8667 0H17.4667V19.7333H19.8667C20.9333 19.7333 21.7333 19.0667 21.7333 18.1333V1.6C21.7333 0.666667 20.9333 0 19.8667 0Z" fill="#0761FE"/>
<path d="M20.9333 22.4H4.8C4.53333 22.4 4.26667 22.2667 4 22.1333C3.73333 21.8667 3.73333 21.6 3.73333 21.3333C3.73333 20.6667 4.26667 20.2667 4.8 20.2667H16.2667V0H3.6C2.8 0 2 0.8 2 1.6V21.2C2 21.8667 2.26667 22.6667 2.8 23.0667C3.33333 23.7333 4 24 4.8 24H20.9333C21.2 24 21.3333 23.8667 21.4667 23.7333C21.6 23.6 21.7333 23.3333 21.7333 23.2C21.7333 22.9333 21.6 22.8 21.4667 22.6667C21.3333 22.4 21.0667 22.4 20.9333 22.4Z" fill="#0761FE"/>
</svg>
