<svg width="17" height="14" viewBox="0 0 17 14" fill="none" xmlns="http://www.w3.org/2000/svg">
<path d="M11.4453 13.0604C10.4865 13.0604 8.90916 13.3293 8.7038 13.9355H7.81293C7.53863 13.3298 6.03071 13.0604 5.07091 13.0604H0V0H5.4826C6.64776 0 7.67554 0.605664 8.22414 1.48078C8.77274 0.605664 9.80099 0 10.9657 0H16.4483V13.0608H11.4453V13.0604ZM7.81293 2.69258C7.81293 1.61574 6.64777 0.875111 5.55153 0.875111H0.959804V12.118H5.07139C5.96274 12.118 7.40172 12.118 7.81341 12.7914V2.69258H7.81293ZM15.5574 0.875111H10.9657C9.80099 0.875111 8.70428 1.61526 8.70428 2.69258V12.7237C9.11597 12.0503 10.5545 12.0503 11.4458 12.0503H15.5579V0.875111H15.5574Z" fill="#999999"/>
</svg>
