<svg width="20" height="20" viewBox="0 0 20 20" fill="none" xmlns="http://www.w3.org/2000/svg">
<path d="M2.07751 11.1471C2.35455 13.0506 3.30765 14.7907 4.76245 16.0491C6.21724 17.3075 8.07648 18 10 18C11.9236 18 13.7828 17.3075 15.2376 16.0491C16.6924 14.7907 17.6455 13.0506 17.9225 11.1471M10.0012 2C9.09143 2 8.21896 2.36139 7.57568 3.00467C6.9324 3.64795 6.57101 4.52042 6.57101 5.43015V10.0037C6.57101 10.9134 6.9324 11.7859 7.57568 12.4292C8.21896 13.0724 9.09143 13.4338 10.0012 13.4338C10.9109 13.4338 11.7834 13.0724 12.4266 12.4292C13.0699 11.7859 13.4313 10.9134 13.4313 10.0037V5.43015C13.4313 4.52042 13.0699 3.64795 12.4266 3.00467C11.7834 2.36139 10.9109 2 10.0012 2Z" stroke="#1F70FE" stroke-width="1.5" stroke-linecap="round" stroke-linejoin="round"/>
</svg>
