<svg width="32" height="32" viewBox="0 0 32 32" fill="none" xmlns="http://www.w3.org/2000/svg">
  <circle cx="16" cy="16" r="14" fill="#4F46E5"/>
  <path d="M12 11C12 9.89543 12.8954 9 14 9C14.5523 9 15.0618 9.20098 15.4497 9.53966C15.7297 8.75378 16.5013 8 17.5 8C18.6046 8 19.5 8.89543 19.5 10C19.5 10.132 19.4906 10.2621 19.4723 10.3893C20.2092 10.6755 20.6 11.405 20.6 12.24C20.6 13.3541 19.6887 14.32 18.52 14.32C18.3433 14.32 18.1717 14.299 18.0079 14.2594C17.8748 15.0714 17.17 15.68 16.32 15.68C15.7406 15.68 15.2406 15.436 14.8997 15.0377C14.5618 15.35 14.1323 15.5 13.6 15.5C12.4954 15.5 11.6 14.6046 11.6 13.5C11.6 12.9477 11.81 12.4382 12.1483 12.0503C11.81 11.6624 11.6 11.1529 11.6 10.6005" fill="white"/>
  <path d="M10 16H22V21C22 21.5523 21.5523 22 21 22H11C10.4477 22 10 21.5523 10 21V16Z" fill="white"/>
  <path d="M12 18H20M12 20H20" stroke="#4F46E5" stroke-width="1.2" stroke-linecap="round"/>
</svg>

